<svg width="23" height="16" viewBox="0 0 23 16" fill="none" xmlns="http://www.w3.org/2000/svg">
<path d="M22.6185 15.2487C22.6306 15.2112 22.6389 15.1715 22.6389 15.1298V1.36524C22.6389 1.32327 22.6306 1.28337 22.6182 1.24554C22.6164 1.24036 22.6153 1.23518 22.6133 1.23C22.5967 1.18569 22.5723 1.14579 22.5418 1.11082C22.5397 1.10848 22.5394 1.10563 22.5374 1.1033C22.5361 1.10201 22.5345 1.10149 22.5332 1.10019C22.5006 1.06548 22.462 1.03749 22.4187 1.01651C22.4153 1.01495 22.4127 1.01288 22.4094 1.01133C22.3684 0.992931 22.3239 0.982568 22.277 0.979459C22.2723 0.9792 22.2679 0.978163 22.2633 0.978163C22.2588 0.977904 22.255 0.976868 22.2506 0.976868H0.693571C0.689166 0.976868 0.685021 0.977904 0.680617 0.978163C0.676471 0.978422 0.672326 0.9792 0.668181 0.979459C0.620768 0.982568 0.575429 0.99319 0.533976 1.01184C0.531385 1.01288 0.529312 1.01469 0.526721 1.01573C0.482677 1.03672 0.443556 1.06522 0.410652 1.10045C0.409357 1.10175 0.407802 1.10201 0.406507 1.1033C0.404434 1.10538 0.404175 1.10823 0.402103 1.11056C0.371531 1.14553 0.346918 1.18569 0.330337 1.23C0.328264 1.23518 0.327228 1.24036 0.325414 1.2458C0.312978 1.28363 0.304688 1.32353 0.304688 1.3655V15.1303C0.304688 15.1728 0.313237 15.2132 0.325932 15.2516C0.327746 15.2568 0.328782 15.2617 0.330596 15.2669C0.347436 15.3114 0.372308 15.3516 0.403139 15.3866C0.404952 15.3886 0.405471 15.3912 0.407284 15.3933C0.408839 15.3951 0.410911 15.3962 0.412725 15.398C0.42542 15.4112 0.43941 15.4228 0.453919 15.4342C0.460396 15.4392 0.466096 15.4451 0.472832 15.4498C0.489932 15.4617 0.508327 15.4713 0.52724 15.4801C0.531903 15.4822 0.536048 15.4855 0.540712 15.4873C0.587606 15.5073 0.639163 15.5187 0.693312 15.5187H22.25C22.3042 15.5187 22.3557 15.5076 22.4026 15.4873C22.4099 15.4842 22.4166 15.4796 22.4236 15.476C22.4397 15.4679 22.4558 15.4596 22.4705 15.4495C22.4783 15.4441 22.4853 15.4371 22.4928 15.4311C22.506 15.4205 22.519 15.4099 22.5304 15.3977C22.5324 15.3956 22.5348 15.3941 22.5368 15.392C22.5389 15.3897 22.5394 15.3866 22.5415 15.3842C22.5718 15.3495 22.5962 15.3096 22.6128 15.2656C22.6153 15.2599 22.6166 15.2544 22.6185 15.2487ZM1.0822 2.24666L7.62326 8.22149L1.0822 14.244V2.24666ZM14.4887 7.92872C14.4618 7.94634 14.4333 7.9611 14.4107 7.98598C14.4022 7.9953 14.3993 8.00748 14.3918 8.01733L11.4719 10.6844L1.69519 1.75387H21.2487L14.4887 7.92872ZM8.19946 8.74769L11.2097 11.4974C11.2841 11.5653 11.3779 11.5992 11.4719 11.5992C11.566 11.5992 11.6598 11.5653 11.7339 11.4974L14.7068 8.78189L21.2469 14.7414H1.68949L8.19946 8.74769ZM15.2833 8.25543L21.8617 2.24666V14.2502L15.2833 8.25543Z" fill="white"/>
</svg>
